####
#
# OBJ File Generated by Meshlab
#
####
# Object cube.obj
#
# Vertices: 8
# Faces: 12
#
####
mtllib ./cube.obj.mtl

vn -0.577350 0.577350 -0.577350
v -0.500000 0.500000 -0.500000
vn -0.577350 0.577350 0.577350
v -0.500000 0.500000 0.500000
vn 0.577350 0.577350 0.577350
v 0.500000 0.500000 0.500000
vn 0.577350 0.577350 -0.577350
v 0.500000 0.500000 -0.500000
vn -0.577350 -0.577350 -0.577350
v -0.500000 -0.500000 -0.500000
vn -0.577350 -0.577350 0.577350
v -0.500000 -0.500000 0.500000
vn 0.577350 -0.577350 0.577350
v 0.500000 -0.500000 0.500000
vn 0.577350 -0.577350 -0.577350
v 0.500000 -0.500000 -0.500000
# 8 vertices, 0 vertices normals


usemtl material_0
vt 0.000000 1.000000
vt 0.000000 0.000000
vt 1.000000 0.000000
f 1/1/1 2/2/2 3/3/3
vt 1.000000 1.000000
f 1/1/1 3/3/3 4/4/4
f 1/1/1 5/2/5 6/3/6
f 1/1/1 6/3/6 2/4/2
f 3/1/3 7/2/7 8/3/8
f 3/1/3 8/3/8 4/4/4
f 4/1/4 8/2/8 5/3/5
f 4/1/4 5/3/5 1/4/1
f 2/1/2 6/2/6 7/3/7
f 2/1/2 7/3/7 3/4/3
f 6/1/6 5/2/5 8/3/8
f 6/1/6 8/3/8 7/4/7
# 12 faces, 4 coords texture

# End of File
